<svg width="40" height="40" viewBox="0 0 40 40" fill="none" xmlns="http://www.w3.org/2000/svg">
<path fill-rule="evenodd" clip-rule="evenodd" d="M24.2724 22.6736C22.0031 26.1681 18.3102 28.1808 14.4504 28.4447C15.3648 30.9449 17.0677 33.1805 19.4723 34.742C25.3713 38.5729 33.2589 36.8963 37.0898 30.9973C40.9206 25.0983 39.244 17.2107 33.345 13.3798C30.9405 11.8183 28.2056 11.1718 25.5496 11.3534C26.8785 14.9869 26.5418 19.1792 24.2724 22.6736Z" fill="#D33B30"/>
<path d="M6.65497 26.4183C9.05951 27.9799 11.7945 28.6263 14.4504 28.4447C13.1216 24.8113 13.4582 20.619 15.7276 17.1245C17.9969 13.6301 21.6898 11.6173 25.5496 11.3534C24.6352 8.85325 22.9323 6.61768 20.5277 5.05615C14.6287 1.2253 6.74112 2.90186 2.91026 8.80086C-0.920601 14.6999 0.755962 22.5875 6.65497 26.4183Z" fill="#2AACDF"/>
<path d="M7.26425 13.5312H12.3585" stroke="white" stroke-width="1.5" stroke-linecap="round"/>
<path d="M27.6414 26.267H32.7357" stroke="white" stroke-width="1.5" stroke-linecap="round"/>
<path d="M30.1886 23.7198V28.8141" stroke="white" stroke-width="1.5" stroke-linecap="round"/>
</svg>
